# xmcd
#
# Track frame offsets: 
#        150
#        17037
#        39462
#
# Disc length: 776 seconds
#
# Revision: 5
# Processed by: cddbd v1.5.2PL0 Copyright (c) Steve Scherf et al.
# Submitted via: ExactAudioCopy v1.3
#
DISCID=1a030603
DTITLE=P.M. Sampson and Double Key - We Love To Love
DYEAR=1990
DGENRE=Hip-Hop
TTITLE0=We Love To Love
TTITLE1=We Love To Love (Airport Mix)
TTITLE2=Lookin' For Something
EXTD=
EXTT0=
EXTT1=Airport Mix
EXTT2=
PLAYORDER=
